<svg
    width="14"
    height="20"
    view-box="0 0 14 20"
    fill="none"
    xmlns="http://www.w3.org/2000/svg"
  >
    <g clip-path="url(#clip0_2763_171)">
      <path
        d="M0.200195 17.155C0.200195 18.4739 1.24052 19.546 2.52028 19.546H11.4291C12.7089 19.546 13.7492 18.4739 13.7492 17.155V2.75759C13.7492 1.43868 12.7089 0.366533 11.4291 0.400569H2.52028C1.24052 0.366533 0.200195 1.43868 0.200195 2.75759V17.155Z"
        fill="#003970"
      />
      <path
        d="M2.52018 0.910767C1.5294 0.910767 0.728516 1.73615 0.728516 2.75724V17.1546C0.728516 18.1757 1.5294 19.0011 2.52018 19.0011H11.429C12.4198 19.0011 13.2207 18.1757 13.2207 17.1546V2.75724C13.2207 1.73615 12.4198 0.910767 11.429 0.910767H2.52018Z"
        fill="white"
      />
      <path
        d="M2.51237 1.19202C1.6702 1.19202 0.993164 1.88976 0.993164 2.75769V17.1551C0.993164 18.023 1.6702 18.7207 2.51237 18.7207H11.4212C12.2633 18.7207 12.9404 18.023 12.9404 17.1551V2.75769C12.9404 1.88976 12.2633 1.19202 11.4212 1.19202H2.51237Z"
        fill="#003970"
      />
      <path
        d="M2.93325 3.66776H3.18095C3.31305 3.66776 3.42864 3.76135 3.42864 3.8975C3.42864 4.04215 3.31305 4.12725 3.14792 4.12725H2.94151V3.66776H2.93325ZM2.47088 4.70586C2.47088 4.76543 2.43786 4.79946 2.38006 4.79946H2.23145V5.00368H3.1892V4.79946H3.02407C2.96628 4.79946 2.93325 4.76543 2.93325 4.70586V4.33997H3.19746C3.64331 4.33997 3.88275 4.22085 3.88275 3.90601C3.88275 3.59117 3.64331 3.47205 3.247 3.47205H2.23145V3.67626H2.38006C2.43786 3.67626 2.47088 3.7103 2.47088 3.76986V4.70586Z"
        fill="white"
      />
      <path
        d="M5.80721 4.3913H5.69161C5.63382 4.3913 5.60079 4.42534 5.60079 4.4849V5.01247H5.38612L5.33658 4.90185C5.19622 5.00396 5.01458 5.0465 4.8577 5.0465C4.35405 5.0465 3.99902 4.77421 3.99902 4.25516C3.99902 3.7361 4.33754 3.42126 4.8577 3.42126C4.99806 3.42126 5.17145 3.46381 5.2953 3.57443L5.34484 3.44679H5.56777V3.98286H5.34484C5.33658 3.75312 5.19622 3.63399 4.94853 3.63399C4.6678 3.63399 4.5357 3.8297 4.5357 4.22963C4.5357 4.62956 4.6678 4.82527 4.94853 4.82527C5.03935 4.82527 5.15494 4.79123 5.15494 4.68061V4.4849C5.15494 4.42534 5.12191 4.3913 5.06412 4.3913H4.94027V4.18708H5.82372V4.3913H5.80721Z"
        fill="white"
      />
      <path
        d="M7.65611 4.82503C7.49097 4.7995 7.49097 4.75695 7.42492 4.62081L6.94604 3.48059H6.58276L6.12865 4.52721C6.05434 4.68037 6.01305 4.7995 5.80664 4.81652V4.99521H6.53322V4.82503H6.50845C6.45065 4.81652 6.31855 4.81652 6.31855 4.73994C6.31855 4.71441 6.33506 4.67186 6.34332 4.63783L6.36808 4.56124H6.94604L6.97907 4.63783C6.98733 4.67186 7.0121 4.72292 7.0121 4.75695C7.0121 4.82503 6.86348 4.81652 6.81394 4.82503V5.00372H7.67262V4.82503H7.65611ZM6.45065 4.38255L6.67358 3.87201L6.87999 4.38255H6.45065Z"
        fill="white"
      />
      <path
        d="M11.8421 5.61652C12.0733 5.37827 12.0816 4.79965 12.0816 4.79965C11.8504 4.36569 11.3633 4.23805 11.3633 4.23805C11.2559 4.16147 11.1651 4.22954 11.1321 4.27209L7.23498 1.82147C6.95426 1.6683 6.55795 2.18736 6.45887 2.37456C6.41759 2.44263 6.54969 2.54474 6.63226 2.59579C6.98729 2.83405 7.15242 2.22139 7.28452 2.00867L11.0578 4.45929C11.0495 4.45929 11.0743 4.6635 11.0825 4.67201C11.0825 4.98685 11.3302 5.25914 11.1816 5.71863C11.1403 6.36532 10.4633 6.49296 10.0917 6.89289C9.75323 7.23325 9.07619 7.1907 8.79547 7.4715L8.78721 7.48001V7.4715C8.54777 6.8163 8.39916 6.78227 8.32485 6.51849C8.02761 6.39936 7.68084 6.37383 7.39186 6.5355C7.11939 6.7227 6.97903 7.06307 7.02857 7.3694C7.03683 7.68423 7.46617 8.0246 7.68909 8.16074C7.54048 8.37347 7.47442 8.63725 7.47442 8.74787C7.4414 9.21587 7.79643 9.65834 7.89551 9.83703C8.31659 10.4837 8.55603 10.9943 8.64685 11.173C8.66337 11.207 8.68814 11.2325 8.66337 11.2836C8.65511 11.2921 8.30008 11.9473 8.89455 12.8748C9.13399 13.3513 9.48076 14.4149 9.48902 14.4234C9.62938 14.5766 9.29912 14.483 9.26609 14.8319C9.03491 14.9255 7.26801 16.3125 6.8717 16.6869C6.71482 16.7379 6.50841 16.7294 6.44236 16.9336C6.4341 16.9506 6.36805 17.1293 6.33502 17.1719C6.16163 17.3761 5.96348 17.7335 5.93045 18.0823C5.88917 18.261 5.93871 18.6099 6.13687 18.7035C6.22769 18.7461 6.26897 18.712 6.29374 18.7035C6.31851 18.6865 6.4341 18.3717 6.45061 18.3376C6.59097 17.9887 6.79739 17.8951 7.26801 17.4016C7.50745 17.4697 7.60653 17.6143 7.85422 17.6739C8.51475 17.0442 9.18353 16.4656 9.82754 15.8104C9.72846 16.8145 9.63764 17.8441 9.63764 18.1249C9.59635 18.3036 9.5881 18.6014 9.71195 18.7546C9.71195 18.7546 10.7936 18.8226 11 18.8056C11.1073 18.7971 11.1073 18.7375 11.1073 18.7375C11.1073 18.7375 11.2064 18.5844 10.9422 18.3887C10.8679 18.3291 10.6862 18.0994 10.5459 18.0058C10.7358 17.9632 10.9257 17.9292 10.9752 17.9292C10.9257 17.4016 10.9174 16.2614 10.8761 14.7723C10.7192 13.2236 10.7027 12.7046 9.95139 9.53921C10.4798 8.91805 10.4633 8.53514 10.9669 7.89696C11.2394 7.32685 11.6605 6.21216 11.8421 5.61652ZM9.5881 8.47558C9.57984 8.43303 9.48902 8.2118 9.45599 8.09267C9.44774 8.07565 10.133 7.61616 10.133 7.61616C10.133 7.61616 10.1413 7.6502 10.1495 7.70125C10.1413 7.70976 9.68718 8.41601 9.5881 8.47558Z"
        fill="white"
      />
      <path
        d="M5.33528 16.8399C5.31051 16.8399 5.22795 16.8314 5.22795 16.7293V16.6272C5.22795 16.4655 5.21969 16.2953 5.13713 16.1422C5.12061 16.1081 5.09584 16.0741 5.07107 16.0401C5.07933 16.0316 5.08759 16.0316 5.09584 16.023H5.1041H5.11236C5.28574 15.8699 5.36831 15.6657 5.36831 15.4189C5.36831 15.2487 5.32703 15.0785 5.25272 14.9254V14.9169V14.9084C5.14538 14.7212 4.98851 14.602 4.78209 14.534C5.06282 14.3638 5.21143 14.0745 5.21143 13.6575C5.21143 13.6575 5.21143 12.4152 5.21143 12.3301C5.26923 12.3301 5.54995 12.3301 5.54995 12.3301L5.5417 11.4622H5.26923H4.74907C5.21143 11.1984 5.47564 10.7049 5.47564 10.0497C5.47564 9.3349 5.17841 8.89243 4.76558 8.65417H5.07107V7.84581C5.07107 7.84581 4.59219 7.84581 4.4766 7.84581C4.4766 7.77774 4.4766 6.6205 4.4766 6.39926C4.60871 6.40777 4.69953 6.54392 4.70779 6.76515L4.71604 7.02894H5.53344V5.52283H5.31877H2.20605V7.02894H3.02345L3.03171 6.75664C3.03996 6.54392 3.13079 6.39926 3.26289 6.39926C3.26289 6.6205 3.26289 7.77774 3.26289 7.84581C3.1473 7.84581 2.66842 7.84581 2.66842 7.84581V8.65417H2.92437C2.5198 8.89243 2.21431 9.3349 2.21431 10.0497C2.21431 10.7049 2.47852 11.1984 2.94089 11.4622H2.22257V12.3301C2.22257 12.3301 2.51155 12.3301 2.56109 12.3301C2.56109 12.3726 2.56109 13.7426 2.56109 13.7426C2.56109 14.0064 2.67668 14.2872 2.97391 14.4744H2.21431V15.3338C2.21431 15.3338 2.46201 15.3338 2.53632 15.3338C2.53632 15.3423 2.59411 15.3338 2.58586 15.3934C2.58586 15.6316 2.58586 16.4996 2.58586 16.7633C2.58586 16.8314 2.53632 16.8144 2.53632 16.8314C2.47026 16.8314 2.21431 16.8314 2.21431 16.8314V17.6823H4.23716V17.4356C4.39404 17.6142 4.61696 17.7078 4.9142 17.7078H5.60775V16.8484L5.33528 16.8399ZM3.79131 12.3301H4.27845C4.27845 12.3301 4.31973 12.3301 4.31973 12.3726C4.31973 12.4152 4.31973 13.5129 4.31973 13.683C4.31973 13.7766 4.23716 13.8532 4.03901 13.8532C3.84085 13.8532 3.73351 13.7766 3.73351 13.683C3.73351 13.683 3.73351 12.4067 3.73351 12.3726C3.74177 12.3386 3.79131 12.3301 3.79131 12.3301ZM4.18762 10.0497C4.18762 10.5687 4.08029 10.8325 3.85736 10.8325C3.75003 10.8325 3.5271 10.8325 3.5271 10.0497C3.5271 9.26683 3.75828 9.26683 3.85736 9.26683C3.99772 9.26683 4.18762 9.26683 4.18762 10.0497ZM3.79957 16.8314C3.74177 16.8314 3.74177 16.7804 3.74177 16.7804V16.4485H3.95644C4.02249 16.4485 4.05552 16.457 4.05552 16.5336C4.05552 16.5506 4.05552 16.6953 4.05552 16.6953C4.05552 16.7378 4.05552 16.7889 4.05552 16.8314C4.04726 16.8314 3.84911 16.8314 3.79957 16.8314ZM3.74177 15.6316V15.2742H4.07203C4.16285 15.2742 4.23716 15.3508 4.23716 15.4444C4.23716 15.555 4.1546 15.6316 4.08029 15.6316H3.74177Z"
        fill="white"
      />
      <path
        d="M5.2607 5.7439H2.42871V6.79902H2.81677V6.74797C2.83328 6.34804 3.05621 6.16935 3.27913 6.16935C3.4195 6.16935 3.4938 6.20339 3.4938 6.26295V7.88819C3.4938 7.97328 3.43601 8.07539 3.3617 8.07539H2.89933V8.43277H4.85613V8.07539H4.39377C4.3112 8.07539 4.26166 7.98179 4.26166 7.88819V6.25444C4.26166 6.19488 4.32771 6.16084 4.47633 6.16084C4.691 6.16084 4.92219 6.33953 4.9387 6.73946V6.79051H5.32676V5.7439H5.2607Z"
        fill="#D9000A"
      />
      <path
        d="M5.31859 11.6915H5.26905H4.20395H4.15442V12.1085H4.36909C4.44339 12.1085 4.49293 12.117 4.5177 12.151C4.54247 12.1765 4.54247 12.2191 4.54247 12.2872V12.3212V13.7677C4.53422 13.8358 4.46816 14.0911 4.04708 14.0911C3.71682 14.0911 3.52692 13.9635 3.52692 13.7422V12.2957C3.52692 12.1255 3.60123 12.117 3.67554 12.117H3.93975V11.7H2.44531V12.117H2.61044C2.68475 12.117 2.73429 12.1255 2.75906 12.1595C2.78383 12.1851 2.78383 12.2361 2.78383 12.2957V12.3297V13.7677C2.78383 14.1251 3.09758 14.5165 3.97277 14.5165C4.86448 14.5165 4.98007 14.0741 4.98007 13.6827V12.3042C4.98007 12.134 5.05438 12.1255 5.12869 12.1255H5.31859V11.6915Z"
        fill="#D9000A"
      />
      <path
        d="M3.84892 8.64551C3.17189 8.64551 2.44531 8.99438 2.44531 10.0495C2.44531 10.943 2.97373 11.4535 3.84892 11.4535C4.72412 11.4535 5.25254 10.943 5.25254 10.0495C5.25254 9.00289 4.52596 8.64551 3.84892 8.64551ZM3.86544 11.0621C3.626 11.0621 3.32051 10.977 3.32051 10.0495C3.32051 9.35176 3.50215 9.03693 3.86544 9.03693C4.25349 9.03693 4.41037 9.31773 4.41037 10.0495C4.41037 10.7302 4.22047 11.0621 3.86544 11.0621Z"
        fill="#D9000A"
      />
      <path
        d="M5.34336 17.0526C5.24428 17.0526 5.02135 17.0441 5.02135 16.7293V16.6186C5.02135 16.491 5.0131 16.3549 4.9553 16.2357C4.8975 16.1081 4.75714 16.04 4.68283 16.006C4.78191 15.972 4.88925 15.9124 4.98007 15.8443C5.09566 15.7422 5.16171 15.5976 5.16171 15.4104C5.16171 15.2742 5.12869 15.1381 5.07089 15.0189C4.94704 14.8062 4.73237 14.7041 4.39386 14.7041H2.44531V15.1125C2.44531 15.1125 2.58567 15.1125 2.70127 15.1125C2.8086 15.1125 2.82511 15.2232 2.82511 15.2232C2.82511 15.2232 2.82511 16.4995 2.82511 16.908C2.82511 16.976 2.76732 17.0441 2.70952 17.0441H2.45357V17.4525H4.06359V17.0441H3.65902C3.60123 17.0441 3.53518 16.9675 3.53518 16.8994C3.53518 16.8994 3.53518 16.3889 3.53518 16.2272C3.55169 16.2272 4.01405 16.2272 4.01405 16.2272C4.06359 16.2272 4.27826 16.2528 4.27001 16.508V16.6867C4.27001 16.8399 4.25349 16.9675 4.31955 17.1377C4.42688 17.3674 4.62504 17.4781 4.92227 17.4781H5.40115V17.0526H5.34336ZM3.52692 15.0445C3.60948 15.0445 3.89021 15.0445 4.08836 15.0445C4.27001 15.0445 4.40211 15.1296 4.4434 15.2742C4.46816 15.3678 4.46816 15.504 4.42688 15.6146C4.36909 15.7677 4.25349 15.8443 4.08836 15.8443C4.08836 15.8443 3.65077 15.8443 3.52692 15.8443C3.52692 15.7507 3.52692 15.121 3.52692 15.104V15.0445Z"
        fill="#D9000A"
      />
    </g>
    <defs>
      <clipPath id="clip0_2763_171">
        <rect
          width="13.6"
          height="19.2"
          fill="white"
          transform="translate(0.200195 0.400391)"
        />
      </clipPath>
    </defs>
  </svg>
